# xmcd
#
# Track frame offsets:
#	150
#	17915
#	35225
#	48380
#	63063
#	79233
#	95820
#	102423
#	114853
#	135400
#	152056
#
# Disc length: 2276 seconds
#
# Revision: 1
# Processed by: cddbd v1.5.2PL0 Copyright (c) Steve Scherf et al.
# Submitted via: audiograbber 1.83.01
#
DISCID=8c08e20b
DTITLE=Kenny Rogers - Once Again It's Christmas
DYEAR=2015
DGENRE=Christmas
TTITLE0=Once Again It's Christmas
TTITLE1=There's A New Kid In Town (Feat. Winfield's Locket)
TTITLE2=Here It Is Christmas - Baby, It's Cold Outside (Feat. Jennifer Nettles)
TTITLE3=Little Drummer Boy
TTITLE4=Back To Bethlehem
TTITLE5=Winter Wonderland
TTITLE6=Some Children See Him (Feat. Alison Krauss)
TTITLE7=I'll Be Home For Christmas
TTITLE8=Children, Go Where I Send Thee (Feat. Home Free)
TTITLE9=That Silent Night (Feat. Jim Brickman)
TTITLE10=The Light
EXTD=
EXTT0=
EXTT1=
EXTT2=
EXTT3=
EXTT4=
EXTT5=
EXTT6=
EXTT7=
EXTT8=
EXTT9=
EXTT10=
PLAYORDER=
